<svg version="1.1" xmlns="http://www.w3.org/2000/svg" viewBox="0 0 1376.321158611635 823.3594388383848" width="4128.963475834905" height="2470.0783165151543">
  <!-- svg-source:excalidraw -->
  
  <defs>
    <style class="style-fonts">
      @font-face {
        font-family: "Virgil";
        src: url("https://excalidraw.com/Virgil.woff2");
      }
      @font-face {
        font-family: "Cascadia";
        src: url("https://excalidraw.com/Cascadia.woff2");
      }
      @font-face {
        font-family: "Assistant";
        src: url("https://excalidraw.com/Assistant-Regular.woff2");
      }
    </style>
    
  </defs>
  <g stroke-linecap="round" transform="translate(821.4164840439626 553.8830377979912) rotate(0 241.70261226686216 73.90034816261391)"><path d="M0 0 C130.16 0, 260.32 0, 483.41 0 M0 0 C168.2 0, 336.41 0, 483.41 0 M483.41 0 C483.41 47.08, 483.41 94.16, 483.41 147.8 M483.41 0 C483.41 33.89, 483.41 67.78, 483.41 147.8 M483.41 147.8 C331.73 147.8, 180.05 147.8, 0 147.8 M483.41 147.8 C363.03 147.8, 242.66 147.8, 0 147.8 M0 147.8 C0 103.83, 0 59.87, 0 0 M0 147.8 C0 90.53, 0 33.26, 0 0" stroke="currentcolor" stroke-width="2" fill="none"></path></g><g transform="translate(977.5450148899263 558.8830377979912) rotate(0 85.57408142089844 9.368294858234492)"><text x="85.57408142089844" y="0" font-family="Helvetica, Segoe UI Emoji" font-size="16.292686709973047px" fill="currentcolor" text-anchor="middle" style="white-space: pre;" direction="ltr" dominant-baseline="text-before-edge">Firebase Authentication</text></g><g stroke-linecap="round" transform="translate(876.5659958038777 593.2755446952254) rotate(0 186.55307646366805 34.50783675726478)"><path d="M0 0 C98.68 0, 197.37 0, 373.11 0 M0 0 C149.19 0, 298.37 0, 373.11 0 M373.11 0 C373.11 18.14, 373.11 36.28, 373.11 69.02 M373.11 0 C373.11 20.48, 373.11 40.96, 373.11 69.02 M373.11 69.02 C277.3 69.02, 181.49 69.02, 0 69.02 M373.11 69.02 C275.35 69.02, 177.6 69.02, 0 69.02 M0 69.02 C0 51.45, 0 33.88, 0 0 M0 69.02 C0 51.05, 0 33.08, 0 0" stroke="currentcolor" stroke-width="2" fill="none"></path></g><g transform="translate(992.0373385639327 618.4150865942557) rotate(0 71.08173370361328 9.368294858234492)"><text x="71.08173370361328" y="0" font-family="Helvetica, Segoe UI Emoji" font-size="16.292686709973047px" fill="currentcolor" text-anchor="middle" style="white-space: pre;" direction="ltr" dominant-baseline="text-before-edge">User Authentication</text></g><g stroke-linecap="round" transform="translate(68.16226825333524 109.11182677882584) rotate(0 225.52615464983592 296.2859539739672)"><path d="M0 0 C160.06 0, 320.12 0, 451.05 0 M0 0 C174.43 0, 348.86 0, 451.05 0 M451.05 0 C451.05 156.73, 451.05 313.46, 451.05 592.57 M451.05 0 C451.05 236.94, 451.05 473.88, 451.05 592.57 M451.05 592.57 C332.51 592.57, 213.97 592.57, 0 592.57 M451.05 592.57 C317.21 592.57, 183.37 592.57, 0 592.57 M0 592.57 C0 440.41, 0 288.24, 0 0 M0 592.57 C0 437.32, 0 282.07, 0 0" stroke="currentcolor" stroke-width="2" fill="none"></path></g><g transform="translate(255.00092290317116 114.11182677882584) rotate(0 38.6875 9.200000000000003)"><text x="38.6875" y="0" font-family="Helvetica, Segoe UI Emoji" font-size="16px" fill="currentcolor" text-anchor="middle" style="white-space: pre;" direction="ltr" dominant-baseline="text-before-edge">Client Side</text></g><g stroke-linecap="round" transform="translate(97.88107716262994 373.9622782327116) rotate(0 197.27215007482778 46.26589367062667)"><path d="M0 0 C107.54 0, 215.08 0, 394.54 0 M0 0 C154.92 0, 309.83 0, 394.54 0 M394.54 0 C394.54 19.58, 394.54 39.17, 394.54 92.53 M394.54 0 C394.54 24.73, 394.54 49.45, 394.54 92.53 M394.54 92.53 C272.4 92.53, 150.26 92.53, 0 92.53 M394.54 92.53 C268.2 92.53, 141.86 92.53, 0 92.53 M0 92.53 C0 64.2, 0 35.87, 0 0 M0 92.53 C0 57.51, 0 22.49, 0 0" stroke="currentcolor" stroke-width="2" fill="none"></path></g><g transform="translate(202.3719772374577 411.02817190333826) rotate(0 92.78125000000011 9.199999999999989)"><text x="92.78125" y="0" font-family="Helvetica, Segoe UI Emoji" font-size="16px" fill="currentcolor" text-anchor="middle" style="white-space: pre;" direction="ltr" dominant-baseline="text-before-edge">ReactJS\n(Web Frontend)</text></g><g stroke-linecap="round" transform="translate(95.92425431758716 157.76160940405606) rotate(0 197.568530600077 51.26438872798755)"><path d="M0 0 C122.76 0, 245.51 0, 395.14 0 M0 0 C84.43 0, 168.86 0, 395.14 0 M395.14 0 C395.14 27.06, 395.14 54.11, 395.14 102.53 M395.14 0 C395.14 38.05, 395.14 76.11, 395.14 102.53 M395.14 102.53 C244.66 102.53, 94.19 102.53, 0 102.53 M395.14 102.53 C277.96 102.53, 160.79 102.53, 0 102.53 M0 102.53 C0 66.32, 0 30.11, 0 0 M0 102.53 C0 68.34, 0 34.15, 0 0" stroke="currentcolor" stroke-width="2" fill="none"></path></g><g transform="translate(175.21153491766427 199.8259981320436) rotate(0 118.28125 9.200000000000003)"><text x="118.28125" y="0" font-family="Helvetica, Segoe UI Emoji" font-size="16px" fill="currentcolor" text-anchor="middle" style="white-space: pre;" direction="ltr" dominant-baseline="text-before-edge">Chat Bot\n(NLP Model in Python)</text></g><g stroke-linecap="round" transform="translate(100.64615413973866 578.1061462033683) rotate(0 195.70758068900125 45.80170822143555)"><path d="M0 0 C124.68 0, 249.36 0, 391.42 0 M0 0 C89.74 0, 179.49 0, 391.42 0 M391.42 0 C391.42 28.74, 391.42 57.49, 391.42 91.6 M391.42 0 C391.42 22.81, 391.42 45.62, 391.42 91.6 M391.42 91.6 C274.98 91.6, 158.54 91.6, 0 91.6 M391.42 91.6 C239.75 91.6, 88.09 91.6, 0 91.6 M0 91.6 C0 68.63, 0 45.65, 0 0 M0 91.6 C0 57.93, 0 24.26, 0 0" stroke="currentcolor" stroke-width="2" fill="none"></path></g><g transform="translate(229.6545160787398 614.7078544248038) rotate(0 66.69921875000011 9.199999999999989)"><text x="66.69921875" y="0" font-family="Helvetica, Segoe UI Emoji" font-size="16px" fill="currentcolor" text-anchor="middle" style="white-space: pre;" direction="ltr" dominant-baseline="text-before-edge">QR Code Interface</text></g><g mask="url(#mask-JsUCVeu_pttOUXhBycLeW)" stroke-linecap="round"><g transform="translate(292.3383465846896 265.82033730434404) rotate(0 0.1535281348915305 52.66497691924329)"><path d="M0 0 C0.06 22.29, 0.13 44.59, 0.31 105.33 M0 0 C0.08 28.15, 0.16 56.29, 0.31 105.33" stroke="currentcolor" stroke-width="2" fill="none"></path></g><g transform="translate(292.3383465846896 265.82033730434404) rotate(0 0.1535281348915305 52.66497691924329)"><path d="M8.62 23.47 C6.79 18.5, 4.97 13.53, 0 0 M8.62 23.47 C6.32 17.2, 4.01 10.93, 0 0" stroke="currentcolor" stroke-width="2" fill="none"></path></g><g transform="translate(292.3383465846896 265.82033730434404) rotate(0 0.1535281348915305 52.66497691924329)"><path d="M-8.48 23.52 C-6.69 18.54, -4.89 13.56, 0 0 M-8.48 23.52 C-6.22 17.23, -3.95 10.95, 0 0" stroke="currentcolor" stroke-width="2" fill="none"></path></g><g transform="translate(292.3383465846896 265.82033730434404) rotate(0 0.1535281348915305 52.66497691924329)"><path d="M-8.31 81.86 C-6.49 86.83, -4.66 91.8, 0.31 105.33 M-8.31 81.86 C-6.01 88.13, -3.71 94.4, 0.31 105.33" stroke="currentcolor" stroke-width="2" fill="none"></path></g><g transform="translate(292.3383465846896 265.82033730434404) rotate(0 0.1535281348915305 52.66497691924329)"><path d="M8.79 81.81 C6.99 86.79, 5.2 91.77, 0.31 105.33 M8.79 81.81 C6.52 88.1, 4.26 94.38, 0.31 105.33" stroke="currentcolor" stroke-width="2" fill="none"></path></g></g><mask id="mask-JsUCVeu_pttOUXhBycLeW"><rect x="0" y="0" fill="#fff" width="392.64540285447265" height="471.1502911428306"></rect><rect x="232.02312471958112" y="309.28531422358736" fill="#000" width="120.9375" height="18.4" opacity="1"></rect></mask><g transform="translate(232.02312471958112 309.28531422358736) rotate(0 60.46875 9.19999999999996)"><text x="60.46875" y="0" font-family="Helvetica, Segoe UI Emoji" font-size="16px" fill="currentcolor" text-anchor="middle" style="white-space: pre;" direction="ltr" dominant-baseline="text-before-edge">User Interactions</text></g><g mask="url(#mask-Fre30xHnxL8o6ASZ969lg)" stroke-linecap="round"><g transform="translate(289.93632390905077 577.1061462033683) rotate(0 1.640745705563404 -54.3530349020366)"><path d="M0 0 C0.87 -28.69, 1.73 -57.37, 3.28 -108.71 M0 0 C1.22 -40.35, 2.44 -80.69, 3.28 -108.71" stroke="currentcolor" stroke-width="2" fill="none"></path></g><g transform="translate(289.93632390905077 577.1061462033683) rotate(0 1.640745705563404 -54.3530349020366)"><path d="M11.12 -84.97 C9.05 -91.23, 6.98 -97.5, 3.28 -108.71 M11.12 -84.97 C8.21 -93.78, 5.3 -102.59, 3.28 -108.71" stroke="currentcolor" stroke-width="2" fill="none"></path></g><g transform="translate(289.93632390905077 577.1061462033683) rotate(0 1.640745705563404 -54.3530349020366)"><path d="M-5.97 -85.48 C-3.53 -91.61, -1.09 -97.74, 3.28 -108.71 M-5.97 -85.48 C-2.54 -94.1, 0.9 -102.72, 3.28 -108.71" stroke="currentcolor" stroke-width="2" fill="none"></path></g></g><mask id="mask-Fre30xHnxL8o6ASZ969lg"><rect x="0" y="0" fill="#fff" width="393.2178153201776" height="785.8122160074415"></rect><rect x="273.3426946146142" y="513.5531113013317" fill="#000" width="36.46875" height="18.4" opacity="1"></rect></mask><g transform="translate(273.3426946146142 513.5531113013317) rotate(0 18.234375 9.199999999999989)"><text x="18.234375" y="0" font-family="Helvetica, Segoe UI Emoji" font-size="16px" fill="currentcolor" text-anchor="middle" style="white-space: pre;" direction="ltr" dominant-baseline="text-before-edge">Scan</text></g><g stroke-linecap="round" transform="translate(821.4164846176427 109.1118264408587) rotate(0 241.85623168945312 140.4641030950546)"><path d="M0 0 C150.53 0, 301.06 0, 483.71 0 M0 0 C142.34 0, 284.69 0, 483.71 0 M483.71 0 C483.71 85.83, 483.71 171.66, 483.71 280.93 M483.71 0 C483.71 106.29, 483.71 212.57, 483.71 280.93 M483.71 280.93 C319.88 280.93, 156.04 280.93, 0 280.93 M483.71 280.93 C355.37 280.93, 227.02 280.93, 0 280.93 M0 280.93 C0 191.13, 0 101.33, 0 0 M0 280.93 C0 222.86, 0 164.8, 0 0" stroke="currentcolor" stroke-width="2" fill="none"></path></g><g transform="translate(1015.5617788070958 114.1118264408587) rotate(0 47.7109375 9.199999999999996)"><text x="47.7109375" y="0" font-family="Helvetica, Segoe UI Emoji" font-size="16px" fill="currentcolor" text-anchor="middle" style="white-space: pre;" direction="ltr" dominant-baseline="text-before-edge">AWS Servers</text></g><g stroke-linecap="round" transform="translate(859.1411807220657 279.999973452772) rotate(0 206.40121238082838 38.25736400596509)"><path d="M0 0 C82.86 0, 165.72 0, 412.8 0 M0 0 C136.49 0, 272.97 0, 412.8 0 M412.8 0 C412.8 26.77, 412.8 53.53, 412.8 76.51 M412.8 0 C412.8 26.61, 412.8 53.22, 412.8 76.51 M412.8 76.51 C306.37 76.51, 199.94 76.51, 0 76.51 M412.8 76.51 C289.62 76.51, 166.43 76.51, 0 76.51 M0 76.51 C0 47.96, 0 19.41, 0 0 M0 76.51 C0 48.73, 0 20.94, 0 0" stroke="currentcolor" stroke-width="2" fill="none"></path></g><g transform="translate(961.061924352894 309.0573374587371) rotate(0 104.48046875 9.199999999999989)"><text x="104.48046875" y="0" font-family="Helvetica, Segoe UI Emoji" font-size="16px" fill="currentcolor" text-anchor="middle" style="white-space: pre;" direction="ltr" dominant-baseline="text-before-edge">NodeJS\n(ExpressJS Server)</text></g><g stroke-linecap="round" transform="translate(859.6171186293095 169.3115125843089) rotate(0 204.11346809428005 34.59006174541176)"><path d="M0 0 C106.99 0, 213.97 0, 408.23 0 M0 0 C106.5 0, 212.99 0, 408.23 0 M408.23 0 C408.23 15.16, 408.23 30.33, 408.23 69.18 M408.23 0 C408.23 17.91, 408.23 35.82, 408.23 69.18 M408.23 69.18 C249.95 69.18, 91.68 69.18, 0 69.18 M408.23 69.18 C257.34 69.18, 106.45 69.18, 0 69.18 M0 69.18 C0 48.91, 0 28.64, 0 0 M0 69.18 C0 43.88, 0 18.59, 0 0" stroke="currentcolor" stroke-width="2" fill="none"></path></g><g transform="translate(991.6876179735896 194.70157432972064) rotate(0 72.04296875 9.200000000000003)"><text x="72.04296875" y="0" font-family="Helvetica, Segoe UI Emoji" font-size="16px" fill="currentcolor" text-anchor="middle" style="white-space: pre;" direction="ltr" dominant-baseline="text-before-edge">MongoDB Database</text></g><g stroke-linecap="round"><g transform="translate(1066.5312516318127 278.999973452772) rotate(0 -0.7364578299482218 -19.75416868881976)"><path d="M0 0 C-0.45 -12.07, -0.9 -24.14, -1.47 -39.51 M0 0 C-0.56 -14.95, -1.11 -29.9, -1.47 -39.51" stroke="currentcolor" stroke-width="2" fill="none"></path></g><g transform="translate(1066.5312516318127 278.999973452772) rotate(0 -0.7364578299482218 -19.75416868881976)"><path d="M5.98 -21.2 C3.7 -26.79, 1.42 -32.39, -1.47 -39.51 M5.98 -21.2 C3.16 -28.13, 0.34 -35.05, -1.47 -39.51" stroke="currentcolor" stroke-width="2" fill="none"></path></g><g transform="translate(1066.5312516318127 278.999973452772) rotate(0 -0.7364578299482218 -19.75416868881976)"><path d="M-7.54 -20.69 C-5.68 -26.44, -3.83 -32.19, -1.47 -39.51 M-7.54 -20.69 C-5.24 -27.81, -2.95 -34.93, -1.47 -39.51" stroke="currentcolor" stroke-width="2" fill="none"></path></g></g><mask></mask><g mask="url(#mask-nB1bLwiAiS1M8-Te5zZ8K)" stroke-linecap="round"><g transform="translate(1063.3973644805992 592.2755446952253) rotate(0 0.9192633883653798 -117.38042161526158)"><path d="M0 0 C0.64 -82.12, 1.29 -164.24, 1.84 -234.76 M0 0 C0.64 -81.65, 1.28 -163.3, 1.84 -234.76" stroke="currentcolor" stroke-width="2" fill="none"></path></g><g transform="translate(1063.3973644805992 592.2755446952253) rotate(0 0.9192633883653798 -117.38042161526158)"><path d="M-8.37 -23.56 C-5.44 -15.32, -2.51 -7.08, 0 0 M-8.37 -23.56 C-5.46 -15.36, -2.55 -7.17, 0 0" stroke="currentcolor" stroke-width="2" fill="none"></path></g><g transform="translate(1063.3973644805992 592.2755446952253) rotate(0 0.9192633883653798 -117.38042161526158)"><path d="M8.73 -23.42 C5.68 -15.23, 2.62 -7.04, 0 0 M8.73 -23.42 C5.7 -15.28, 2.66 -7.13, 0 0" stroke="currentcolor" stroke-width="2" fill="none"></path></g><g transform="translate(1063.3973644805992 592.2755446952253) rotate(0 0.9192633883653798 -117.38042161526158)"><path d="M10.2 -211.2 C7.28 -219.44, 4.35 -227.68, 1.84 -234.76 M10.2 -211.2 C7.29 -219.4, 4.39 -227.59, 1.84 -234.76" stroke="currentcolor" stroke-width="2" fill="none"></path></g><g transform="translate(1063.3973644805992 592.2755446952253) rotate(0 0.9192633883653798 -117.38042161526158)"><path d="M-6.9 -211.34 C-3.84 -219.53, -0.79 -227.72, 1.84 -234.76 M-6.9 -211.34 C-3.86 -219.48, -0.82 -227.63, 1.84 -234.76" stroke="currentcolor" stroke-width="2" fill="none"></path></g></g><mask id="mask-nB1bLwiAiS1M8-Te5zZ8K"><rect x="0" y="0" fill="#fff" width="1165.23589125733" height="927.0363879257485"></rect><rect x="1004.7385028689646" y="465.69512307996365" fill="#000" width="119.15625" height="18.4" opacity="1"></rect></mask><g transform="translate(1004.7385028689646 465.69512307996376) rotate(0 59.578125 9.199999999999989)"><text x="59.578125" y="0" font-family="Helvetica, Segoe UI Emoji" font-size="16px" fill="currentcolor" text-anchor="middle" style="white-space: pre;" direction="ltr" dominant-baseline="text-before-edge">User Credentials</text></g><g mask="url(#mask-HmYvE4Od17i44pw7iqbil)" stroke-linecap="round"><g transform="translate(496.86534094385524 208.4030484145354) rotate(0 178.18460493325324 42.93167793415675)"><path d="M0 0 C38.82 0.1, 77.63 0.21, 177.1 0.47 M0 0 C45.85 0.12, 91.69 0.24, 177.1 0.47 M177.1 0.47 C177.04 32.75, 176.98 65.03, 176.94 83.73 M177.1 0.47 C177.04 31.25, 176.98 62.02, 176.94 83.73 M176.94 83.73 C229.51 84.36, 282.09 84.98, 356.37 85.86 M176.94 83.73 C242.55 84.51, 308.16 85.29, 356.37 85.86" stroke="currentcolor" stroke-width="2" fill="none"></path></g><g transform="translate(496.86534094385524 208.4030484145354) rotate(0 178.18460493325324 42.93167793415675)"><path d="M23.52 -8.49 C18.36 -6.63, 13.21 -4.77, 0 0 M23.52 -8.49 C17.43 -6.29, 11.34 -4.09, 0 0" stroke="currentcolor" stroke-width="2" fill="none"></path></g><g transform="translate(496.86534094385524 208.4030484145354) rotate(0 178.18460493325324 42.93167793415675)"><path d="M23.47 8.61 C18.33 6.73, 13.18 4.84, 0 0 M23.47 8.61 C17.39 6.38, 11.32 4.15, 0 0" stroke="currentcolor" stroke-width="2" fill="none"></path></g><g transform="translate(496.86534094385524 208.4030484145354) rotate(0 178.18460493325324 42.93167793415675)"><path d="M332.78 94.13 C337.95 92.32, 343.12 90.51, 356.37 85.86 M332.78 94.13 C338.88 91.99, 344.99 89.85, 356.37 85.86" stroke="currentcolor" stroke-width="2" fill="none"></path></g><g transform="translate(496.86534094385524 208.4030484145354) rotate(0 178.18460493325324 42.93167793415675)"><path d="M332.98 77.03 C338.11 78.97, 343.23 80.9, 356.37 85.86 M332.98 77.03 C339.03 79.32, 345.09 81.61, 356.37 85.86" stroke="currentcolor" stroke-width="2" fill="none"></path></g></g><mask id="mask-HmYvE4Od17i44pw7iqbil"><rect x="0" y="0" fill="#fff" width="953.2345508103617" height="394.2664042828489"></rect><rect x="629.8626691416762" y="241.30392318844522" fill="#000" width="88.046875" height="18.4" opacity="1"></rect></mask><g transform="translate(629.8626691416762 241.30392318844525) rotate(0 45.187276735432306 10.030803160246919)"><text x="44.0234375" y="0" font-family="Helvetica, Segoe UI Emoji" font-size="16px" fill="currentcolor" text-anchor="middle" style="white-space: pre;" direction="ltr" dominant-baseline="text-before-edge">NLP queries</text></g><g mask="url(#mask-pCIN9j9nsZWUrzi4KxjU1)" stroke-linecap="round"><g transform="translate(497.0587463908596 420.57050179667795) rotate(0 180.82483971472107 -38.615217520891264)"><path d="M0 0 C58.08 0.15, 116.15 0.31, 177.1 0.47 M0 0 C63.18 0.17, 126.36 0.34, 177.1 0.47 M177.1 0.47 C177.06 -22.1, 177.01 -44.67, 176.94 -77.7 M177.1 0.47 C177.05 -22.6, 177.01 -45.67, 176.94 -77.7 M176.94 -77.7 C230.7 -77.08, 284.47 -76.46, 361.65 -75.57 M176.94 -77.7 C216.17 -77.25, 255.41 -76.8, 361.65 -75.57" stroke="currentcolor" stroke-width="2" fill="none"></path></g><g transform="translate(497.0587463908596 420.57050179667795) rotate(0 180.82483971472107 -38.615217520891264)"><path d="M23.52 -8.49 C15.8 -5.7, 8.09 -2.92, 0 0 M23.52 -8.49 C15.13 -5.46, 6.74 -2.43, 0 0" stroke="currentcolor" stroke-width="2" fill="none"></path></g><g transform="translate(497.0587463908596 420.57050179667795) rotate(0 180.82483971472107 -38.615217520891264)"><path d="M23.47 8.61 C15.77 5.79, 8.08 2.96, 0 0 M23.47 8.61 C15.1 5.54, 6.72 2.47, 0 0" stroke="currentcolor" stroke-width="2" fill="none"></path></g><g transform="translate(497.0587463908596 420.57050179667795) rotate(0 180.82483971472107 -38.615217520891264)"><path d="M338.06 -67.29 C345.8 -70.01, 353.53 -72.72, 361.65 -75.57 M338.06 -67.29 C346.48 -70.24, 354.89 -73.2, 361.65 -75.57" stroke="currentcolor" stroke-width="2" fill="none"></path></g><g transform="translate(497.0587463908596 420.57050179667795) rotate(0 180.82483971472107 -38.615217520891264)"><path d="M338.26 -84.39 C345.93 -81.5, 353.6 -78.6, 361.65 -75.57 M338.26 -84.39 C346.6 -81.24, 354.95 -78.1, 361.65 -75.57" stroke="currentcolor" stroke-width="2" fill="none"></path></g></g><mask id="mask-pCIN9j9nsZWUrzi4KxjU1"><rect x="0" y="0" fill="#fff" width="958.7084258203017" height="598.7444121636014"></rect><rect x="628.2787308386805" y="372.7552842757866" fill="#000" width="91.6015625" height="18.4" opacity="1"></rect></mask><g transform="translate(628.2787308386805 372.75528427578666) rotate(0 49.60485526690013 9.200000000000017)"><text x="45.80078125" y="0" font-family="Helvetica, Segoe UI Emoji" font-size="16px" fill="currentcolor" text-anchor="middle" style="white-space: pre;" direction="ltr" dominant-baseline="text-before-edge">API requests</text></g><g stroke-opacity="0.3" fill-opacity="0.3" stroke-linecap="round" transform="translate(10 10) rotate(0 678.1605793058175 401.6797194191924)"><path d="M0 0 C455.28 0, 910.56 0, 1356.32 0 M0 0 C378.03 0, 756.06 0, 1356.32 0 M1356.32 0 C1356.32 301.62, 1356.32 603.25, 1356.32 803.36 M1356.32 0 C1356.32 207.14, 1356.32 414.28, 1356.32 803.36 M1356.32 803.36 C962.39 803.36, 568.47 803.36, 0 803.36 M1356.32 803.36 C1029.91 803.36, 703.5 803.36, 0 803.36 M0 803.36 C0 625.35, 0 447.34, 0 0 M0 803.36 C0 535, 0 266.63, 0 0" stroke="currentcolor" stroke-width="2" fill="none"></path></g></svg>