<svg version="1.1" xmlns="http://www.w3.org/2000/svg" viewBox="0 0 922.7072456686615 994.6941769571466" width="2768.1217370059844" height="2984.0825308714398">
  <!-- svg-source:excalidraw -->
  
  <defs>
    <style class="style-fonts">
      @font-face {
        font-family: "Virgil";
        src: url("https://excalidraw.com/Virgil.woff2");
      }
      @font-face {
        font-family: "Cascadia";
        src: url("https://excalidraw.com/Cascadia.woff2");
      }
      @font-face {
        font-family: "Assistant";
        src: url("https://excalidraw.com/Assistant-Regular.woff2");
      }
    </style>
    
  </defs>
  <g stroke-linecap="round" transform="translate(430.55540468439574 47.07343171240399) rotate(0 34.849998474121094 21.899999618530273)"><path d="M0 0 C15.88 0, 31.76 0, 69.7 0 M0 0 C26.19 0, 52.38 0, 69.7 0 M69.7 0 C69.7 17.37, 69.7 34.73, 69.7 43.8 M69.7 0 C69.7 14.57, 69.7 29.13, 69.7 43.8 M69.7 43.8 C45.13 43.8, 20.56 43.8, 0 43.8 M69.7 43.8 C54.35 43.8, 39.01 43.8, 0 43.8 M0 43.8 C0 32.62, 0 21.43, 0 0 M0 43.8 C0 30.6, 0 17.4, 0 0" stroke="currentcolor" stroke-width="2" fill="none"></path></g><g transform="translate(448.51087190851683 59.77343133093427) rotate(0 16.89453125 9.200000000000003)"><text x="16.89453125" y="0" font-family="Helvetica, Segoe UI Emoji" font-size="16px" fill="currentcolor" text-anchor="middle" style="white-space: pre;" direction="ltr" dominant-baseline="text-before-edge">Start</text></g><g stroke-linecap="round" transform="translate(362.450798686603 124.68130786807012) rotate(0 106.22500610351562 71.88616614473159)"><path d="M107 0 C147.08 27.37, 187.16 54.74, 212.45 72 M107 0 C138.58 21.56, 170.16 43.12, 212.45 72 M212.45 72 C181.81 92.86, 151.17 113.71, 107 143.77 M212.45 72 C178.35 95.21, 144.24 118.43, 107 143.77 M107 143.77 C85.29 129.21, 63.58 114.65, 0 72 M107 143.77 C65.44 115.89, 23.87 88.01, 0 72 M0 72 C33.89 49.2, 67.78 26.39, 107 0 M0 72 C32.12 50.39, 64.23 28.78, 107 0" stroke="currentcolor" stroke-width="2" fill="none"></path></g><g transform="translate(448.9890829883608 187.4243909404359) rotate(0 19.57421875 9.2)"><text x="19.57421875" y="0" font-family="Helvetica, Segoe UI Emoji" font-size="16px" fill="currentcolor" text-anchor="middle" style="white-space: pre;" direction="ltr" dominant-baseline="text-before-edge">Login</text></g><g stroke-linecap="round" transform="translate(246.2093940863557 489.36348921082345) rotate(0 106.22500610351562 71.88616614473159)"><path d="M107 0 C143.26 24.76, 179.51 49.51, 212.45 72 M107 0 C132.15 17.17, 157.31 34.35, 212.45 72 M212.45 72 C180.4 93.82, 148.35 115.63, 107 143.77 M212.45 72 C185.22 90.53, 157.99 109.07, 107 143.77 M107 143.77 C84.31 128.56, 61.63 113.34, 0 72 M107 143.77 C82.23 127.16, 57.46 110.54, 0 72 M0 72 C33.37 49.54, 66.75 27.09, 107 0 M0 72 C24.15 55.75, 48.29 39.5, 107 0" stroke="currentcolor" stroke-width="2" fill="none"></path></g><g transform="translate(317.6422096381136 542.9065722831892) rotate(0 34.6796875 18.400000000000006)"><text x="34.6796875" y="0" font-family="Helvetica, Segoe UI Emoji" font-size="16px" fill="currentcolor" text-anchor="middle" style="white-space: pre;" direction="ltr" dominant-baseline="text-before-edge">Scan QR </text><text x="34.6796875" y="18.4" font-family="Helvetica, Segoe UI Emoji" font-size="16px" fill="currentcolor" text-anchor="middle" style="white-space: pre;" direction="ltr" dominant-baseline="text-before-edge">Code</text></g><g stroke-linecap="round" transform="translate(234.3530903447995 404.3543514647045) rotate(0 231.91365329829136 21.899999618530273)"><path d="M0 0 C95.01 0, 190.02 0, 463.83 0 M0 0 C101.63 0, 203.27 0, 463.83 0 M463.83 0 C463.83 9.55, 463.83 19.1, 463.83 43.8 M463.83 0 C463.83 10.36, 463.83 20.72, 463.83 43.8 M463.83 43.8 C329.56 43.8, 195.3 43.8, 0 43.8 M463.83 43.8 C339.47 43.8, 215.12 43.8, 0 43.8 M0 43.8 C0 27.4, 0 10.99, 0 0 M0 43.8 C0 30.81, 0 17.82, 0 0" stroke="currentcolor" stroke-width="2" fill="none"></path></g><g transform="translate(426.8409623930909 417.0543510832348) rotate(0 39.42578125 9.199999999999989)"><text x="39.42578125" y="0" font-family="Helvetica, Segoe UI Emoji" font-size="16px" fill="currentcolor" text-anchor="middle" style="white-space: pre;" direction="ltr" dominant-baseline="text-before-edge">Web Portal</text></g><g stroke-linecap="round" transform="translate(66.9179488892621 546.5880559388256) rotate(0 71.8687515258789 21.899999618530273)"><path d="M0 0 C38.05 0, 76.1 0, 143.74 0 M0 0 C48.61 0, 97.23 0, 143.74 0 M143.74 0 C143.74 10.35, 143.74 20.7, 143.74 43.8 M143.74 0 C143.74 12.63, 143.74 25.26, 143.74 43.8 M143.74 43.8 C111.55 43.8, 79.37 43.8, 0 43.8 M143.74 43.8 C103.59 43.8, 63.44 43.8, 0 43.8 M0 43.8 C0 28.29, 0 12.78, 0 0 M0 43.8 C0 34.82, 0 25.83, 0 0" stroke="currentcolor" stroke-width="2" fill="none"></path></g><g transform="translate(96.54451291514101 559.2880555573558) rotate(0 42.2421875 9.199999999999989)"><text x="42.2421875" y="0" font-family="Helvetica, Segoe UI Emoji" font-size="16px" fill="currentcolor" text-anchor="middle" style="white-space: pre;" direction="ltr" dominant-baseline="text-before-edge">Create Post</text></g><g stroke-linecap="round" transform="translate(274.76591399277766 665.6990969388256) rotate(0 85.7562484741211 21.899999618530273)"><path d="M0 0 C55.26 0, 110.51 0, 171.51 0 M0 0 C41.21 0, 82.42 0, 171.51 0 M171.51 0 C171.51 16.14, 171.51 32.27, 171.51 43.8 M171.51 0 C171.51 11.39, 171.51 22.77, 171.51 43.8 M171.51 43.8 C128.82 43.8, 86.14 43.8, 0 43.8 M171.51 43.8 C121.61 43.8, 71.71 43.8, 0 43.8 M0 43.8 C0 27.27, 0 10.74, 0 0 M0 43.8 C0 27.45, 0 11.11, 0 0" stroke="currentcolor" stroke-width="2" fill="none"></path></g><g transform="translate(308.93231871689875 678.3990965573558) rotate(0 51.58984375 9.199999999999989)"><text x="51.58984375" y="0" font-family="Helvetica, Segoe UI Emoji" font-size="16px" fill="currentcolor" text-anchor="middle" style="white-space: pre;" direction="ltr" dominant-baseline="text-before-edge">Add Feedback</text></g><g stroke-linecap="round" transform="translate(633.2923564151413 637.0874259388256) rotate(0 107.0999984741211 21.899999618530273)"><path d="M0 0 C74.69 0, 149.37 0, 214.2 0 M0 0 C70.57 0, 141.15 0, 214.2 0 M214.2 0 C214.2 13.66, 214.2 27.31, 214.2 43.8 M214.2 0 C214.2 10.38, 214.2 20.77, 214.2 43.8 M214.2 43.8 C161.19 43.8, 108.18 43.8, 0 43.8 M214.2 43.8 C158.24 43.8, 102.27 43.8, 0 43.8 M0 43.8 C0 31.88, 0 19.96, 0 0 M0 43.8 C0 29.69, 0 15.58, 0 0" stroke="currentcolor" stroke-width="2" fill="none"></path></g><g transform="translate(677.2556361392624 649.7874255573558) rotate(0 63.13671875 9.199999999999989)"><text x="63.13671875" y="0" font-family="Helvetica, Segoe UI Emoji" font-size="16px" fill="currentcolor" text-anchor="middle" style="white-space: pre;" direction="ltr" dominant-baseline="text-before-edge">Submit Complaint</text></g><g stroke-linecap="round" transform="translate(518.1110225973746 545.5880557017651) rotate(0 90.03468733124657 21.899999618530273)"><path d="M0 0 C42.17 0, 84.34 0, 180.07 0 M0 0 C66.84 0, 133.67 0, 180.07 0 M180.07 0 C180.07 10.87, 180.07 21.73, 180.07 43.8 M180.07 0 C180.07 11, 180.07 22.01, 180.07 43.8 M180.07 43.8 C134.63 43.8, 89.19 43.8, 0 43.8 M180.07 43.8 C111.92 43.8, 43.76 43.8, 0 43.8 M0 43.8 C0 27.09, 0 10.37, 0 0 M0 43.8 C0 26.83, 0 9.85, 0 0" stroke="currentcolor" stroke-width="2" fill="none"></path></g><g transform="translate(536.1105536786212 558.2880553202954) rotate(0 72.03515625000006 9.199999999999989)"><text x="72.03515625" y="0" font-family="Helvetica, Segoe UI Emoji" font-size="16px" fill="currentcolor" text-anchor="middle" style="white-space: pre;" direction="ltr" dominant-baseline="text-before-edge">Chat Bot Assistance</text></g><g stroke-linecap="round" transform="translate(65.70544736338314 665.3880651758861) rotate(0 73.08125305175784 21.899999618530273)"><path d="M0 0 C57.95 0, 115.91 0, 146.16 0 M0 0 C48.61 0, 97.22 0, 146.16 0 M146.16 0 C146.16 15.44, 146.16 30.88, 146.16 43.8 M146.16 0 C146.16 9.64, 146.16 19.29, 146.16 43.8 M146.16 43.8 C108.84 43.8, 71.52 43.8, 0 43.8 M146.16 43.8 C102.11 43.8, 58.05 43.8, 0 43.8 M0 43.8 C0 31.82, 0 19.84, 0 0 M0 43.8 C0 32.42, 0 21.04, 0 0" stroke="currentcolor" stroke-width="2" fill="none"></path></g><g transform="translate(95.65779416514101 678.0880647944164) rotate(0 43.12890625 9.199999999999989)"><text x="43.12890625" y="0" font-family="Helvetica, Segoe UI Emoji" font-size="16px" fill="currentcolor" text-anchor="middle" style="white-space: pre;" direction="ltr" dominant-baseline="text-before-edge">Submit Post</text></g><g stroke-linecap="round" transform="translate(257.36591246689875 766.9266991758861) rotate(0 103.15625 21.899999618530273)"><path d="M0 0 C59.95 0, 119.9 0, 206.31 0 M0 0 C66.73 0, 133.45 0, 206.31 0 M206.31 0 C206.31 8.89, 206.31 17.78, 206.31 43.8 M206.31 0 C206.31 17.01, 206.31 34.03, 206.31 43.8 M206.31 43.8 C140.97 43.8, 75.63 43.8, 0 43.8 M206.31 43.8 C144.39 43.8, 82.46 43.8, 0 43.8 M0 43.8 C0 28.47, 0 13.14, 0 0 M0 43.8 C0 33.93, 0 24.06, 0 0" stroke="currentcolor" stroke-width="2" fill="none"></path></g><g transform="translate(298.26825621689875 779.6266987944164) rotate(0 62.25390625 9.199999999999989)"><text x="62.25390625" y="0" font-family="Helvetica, Segoe UI Emoji" font-size="16px" fill="currentcolor" text-anchor="middle" style="white-space: pre;" direction="ltr" dominant-baseline="text-before-edge">Submit Feedback</text></g><g stroke-linecap="round" transform="translate(651.3673533633835 766.9266991758861) rotate(0 89.0250015258789 21.899999618530273)"><path d="M0 0 C38.82 0, 77.64 0, 178.05 0 M0 0 C42.11 0, 84.22 0, 178.05 0 M178.05 0 C178.05 12.68, 178.05 25.36, 178.05 43.8 M178.05 0 C178.05 11.74, 178.05 23.49, 178.05 43.8 M178.05 43.8 C111.36 43.8, 44.68 43.8, 0 43.8 M178.05 43.8 C125.24 43.8, 72.44 43.8, 0 43.8 M0 43.8 C0 28.19, 0 12.57, 0 0 M0 43.8 C0 30.38, 0 16.96, 0 0" stroke="currentcolor" stroke-width="2" fill="none"></path></g><g transform="translate(689.2634486392624 779.6266987944164) rotate(0 51.12890625 9.199999999999989)"><text x="51.12890625" y="0" font-family="Helvetica, Segoe UI Emoji" font-size="16px" fill="currentcolor" text-anchor="middle" style="white-space: pre;" direction="ltr" dominant-baseline="text-before-edge">File Complaint</text></g><g stroke-linecap="round" transform="translate(366.7994893103553 878.1442124129467) rotate(0 82.76545722648837 21.899999618530273)"><path d="M0 0 C39.12 0, 78.25 0, 165.53 0 M0 0 C47.74 0, 95.47 0, 165.53 0 M165.53 0 C165.53 9.81, 165.53 19.61, 165.53 43.8 M165.53 0 C165.53 12.23, 165.53 24.47, 165.53 43.8 M165.53 43.8 C106.91 43.8, 48.29 43.8, 0 43.8 M165.53 43.8 C131.58 43.8, 97.63 43.8, 0 43.8 M0 43.8 C0 26.67, 0 9.54, 0 0 M0 43.8 C0 30.56, 0 17.32, 0 0" stroke="currentcolor" stroke-width="2" fill="none"></path></g><g transform="translate(435.33057153684365 890.8442120314769) rotate(0 14.234375 9.199999999999989)"><text x="14.234375" y="0" font-family="Helvetica, Segoe UI Emoji" font-size="16px" fill="currentcolor" text-anchor="middle" style="white-space: pre;" direction="ltr" dominant-baseline="text-before-edge">End</text></g><g mask="url(#mask-A3OYw1tGYTw7zFXR-jwMV)" stroke-linecap="round"><g transform="translate(472.0810893603723 269.11952361313) rotate(0 0.2762899697651733 66.14415943531893)"><path d="M0 0 C-0.15 23.93, -0.3 47.87, -0.48 76.77 M0 0 C-0.11 18.2, -0.23 36.4, -0.48 76.77 M-0.48 76.77 C-0.11 90.51, 0.27 104.25, 1.03 132.29 M-0.48 76.77 C-0.09 91.27, 0.31 105.78, 1.03 132.29" stroke="currentcolor" stroke-width="2" fill="none"></path></g><g transform="translate(472.0810893603723 269.11952361313) rotate(0 0.2762899697651733 66.14415943531893)"><path d="M-8.15 109.04 C-5.29 116.29, -2.42 123.54, 1.03 132.29 M-8.15 109.04 C-5.98 114.55, -3.8 120.06, 1.03 132.29" stroke="currentcolor" stroke-width="2" fill="none"></path></g><g transform="translate(472.0810893603723 269.11952361313) rotate(0 0.2762899697651733 66.14415943531893)"><path d="M8.94 108.57 C6.48 115.97, 4.01 123.36, 1.03 132.29 M8.94 108.57 C7.07 114.19, 5.19 119.82, 1.03 132.29" stroke="currentcolor" stroke-width="2" fill="none"></path></g></g><mask id="mask-A3OYw1tGYTw7zFXR-jwMV"><rect x="0" y="0" fill="#fff" width="573.597185892976" height="501.40784248376787"></rect><rect x="436.91573731383573" y="336.68571198303255" fill="#000" width="69.3671875" height="18.4" opacity="1"></rect></mask><g transform="translate(436.9157373138355 336.6857119830325) rotate(0 35.44164201630184 -1.4220289345835795)"><text x="34.68359375" y="0" font-family="Helvetica, Segoe UI Emoji" font-size="16px" fill="currentcolor" text-anchor="middle" style="white-space: pre;" direction="ltr" dominant-baseline="text-before-edge">Accessed</text></g><g stroke-linecap="round"><g transform="translate(230.59732347175202 432.6630197844779) rotate(0 -46.310680413443436 55.84626206708228)"><path d="M0 0 C-22.59 -0.31, -45.17 -0.61, -91.03 -1.23 M0 0 C-22.87 -0.31, -45.74 -0.62, -91.03 -1.23 M-91.03 -1.23 C-91.43 27.58, -91.83 56.38, -92.62 112.93 M-91.03 -1.23 C-91.63 41.97, -92.23 85.18, -92.62 112.93" stroke="currentcolor" stroke-width="2" fill="none"></path></g><g transform="translate(230.59732347175202 432.6630197844779) rotate(0 -46.310680413443436 55.84626206708228)"><path d="M-100.84 89.32 C-98.8 95.17, -96.76 101.03, -92.62 112.93 M-100.84 89.32 C-98.78 95.25, -96.71 101.18, -92.62 112.93" stroke="currentcolor" stroke-width="2" fill="none"></path></g><g transform="translate(230.59732347175202 432.6630197844779) rotate(0 -46.310680413443436 55.84626206708228)"><path d="M-83.74 89.55 C-85.95 95.35, -88.15 101.15, -92.62 112.93 M-83.74 89.55 C-85.97 95.43, -88.2 101.3, -92.62 112.93" stroke="currentcolor" stroke-width="2" fill="none"></path></g></g><mask></mask><g stroke-linecap="round"><g transform="translate(699.1803969413822 435.71703727673616) rotate(0 45.76641949608927 97.55524941163091)"><path d="M0 0 C18.57 -0.17, 37.15 -0.34, 91.53 -0.84 M0 0 C35.56 -0.33, 71.11 -0.65, 91.53 -0.84 M91.53 -0.84 C91.23 61.48, 90.92 123.81, 90.57 195.95 M91.53 -0.84 C91.24 58.23, 90.95 117.29, 90.57 195.95" stroke="currentcolor" stroke-width="2" fill="none"></path></g><g transform="translate(699.1803969413822 435.71703727673616) rotate(0 45.76641949608927 97.55524941163091)"><path d="M82.13 172.42 C83.84 177.19, 85.55 181.97, 90.57 195.95 M82.13 172.42 C85.41 181.56, 88.68 190.7, 90.57 195.95" stroke="currentcolor" stroke-width="2" fill="none"></path></g><g transform="translate(699.1803969413822 435.71703727673616) rotate(0 45.76641949608927 97.55524941163091)"><path d="M99.23 172.5 C97.47 177.26, 95.72 182.02, 90.57 195.95 M99.23 172.5 C95.87 181.61, 92.5 190.72, 90.57 195.95" stroke="currentcolor" stroke-width="2" fill="none"></path></g></g><mask></mask><g stroke-linecap="round"><g transform="translate(139.02196171443006 591.3880551758862) rotate(0 -0.08963796585965156 36.50000499999999)"><path d="M0 0 C-0.04 16.34, -0.08 32.69, -0.18 73 M0 0 C-0.05 20.39, -0.1 40.78, -0.18 73" stroke="currentcolor" stroke-width="2" fill="none"></path></g><g transform="translate(139.02196171443006 591.3880551758862) rotate(0 -0.08963796585965156 36.50000499999999)"><path d="M-8.67 49.49 C-6.77 54.75, -4.87 60.02, -0.18 73 M-8.67 49.49 C-6.3 56.05, -3.93 62.62, -0.18 73" stroke="currentcolor" stroke-width="2" fill="none"></path></g><g transform="translate(139.02196171443006 591.3880551758862) rotate(0 -0.08963796585965156 36.50000499999999)"><path d="M8.43 49.53 C6.5 54.78, 4.57 60.04, -0.18 73 M8.43 49.53 C6.02 56.08, 3.62 62.64, -0.18 73" stroke="currentcolor" stroke-width="2" fill="none"></path></g></g><mask></mask><g stroke-linecap="round"><g transform="translate(360.52240624564456 710.4990961758862) rotate(0 4.16582111029129e-8 27.713801499999988)"><path d="M0 0 C0 13.8, 0 27.59, 0 55.43 M0 0 C0 16.13, 0 32.25, 0 55.43" stroke="currentcolor" stroke-width="2" fill="none"></path></g><g transform="translate(360.52240624564456 710.4990961758862) rotate(0 4.16582111029129e-8 27.713801499999988)"><path d="M-8.55 31.94 C-6.42 37.78, -4.29 43.63, 0 55.43 M-8.55 31.94 C-6.06 38.77, -3.57 45.61, 0 55.43" stroke="currentcolor" stroke-width="2" fill="none"></path></g><g transform="translate(360.52240624564456 710.4990961758862) rotate(0 4.16582111029129e-8 27.713801499999988)"><path d="M8.55 31.94 C6.42 37.78, 4.29 43.63, 0 55.43 M8.55 31.94 C6.06 38.77, 3.57 45.61, 0 55.43" stroke="currentcolor" stroke-width="2" fill="none"></path></g></g><mask></mask><g stroke-linecap="round"><g transform="translate(740.3377253128733 681.8874251758863) rotate(0 0.021317626695008585 42.01963699999993)"><path d="M0 0 C0.01 20.8, 0.02 41.59, 0.04 84.04 M0 0 C0.01 21.96, 0.02 43.91, 0.04 84.04" stroke="currentcolor" stroke-width="2" fill="none"></path></g><g transform="translate(740.3377253128733 681.8874251758863) rotate(0 0.021317626695008585 42.01963699999993)"><path d="M-8.52 60.55 C-6.4 66.36, -4.28 72.18, 0.04 84.04 M-8.52 60.55 C-6.28 66.69, -4.05 72.82, 0.04 84.04" stroke="currentcolor" stroke-width="2" fill="none"></path></g><g transform="translate(740.3377253128733 681.8874251758863) rotate(0 0.021317626695008585 42.01963699999993)"><path d="M8.58 60.54 C6.47 66.36, 4.36 72.17, 0.04 84.04 M8.58 60.54 C6.35 66.68, 4.12 72.82, 0.04 84.04" stroke="currentcolor" stroke-width="2" fill="none"></path></g></g><mask></mask><g stroke-linecap="round"><g transform="translate(562.2270130054148 593.3162131560454) rotate(0 -56.33103276826654 46.92090079085932)"><path d="M0 0 C-0.29 23.68, -0.57 47.36, -1.13 93.84 M0 0 C-0.43 35.52, -0.86 71.04, -1.13 93.84 M-1.13 93.84 C-43.69 93.42, -86.25 93, -112.66 92.74 M-1.13 93.84 C-44.35 93.41, -87.57 92.99, -112.66 92.74" stroke="currentcolor" stroke-width="2" fill="none"></path></g><g transform="translate(562.2270130054148 593.3162131560454) rotate(0 -56.33103276826654 46.92090079085932)"><path d="M-89.09 84.42 C-95.04 86.52, -100.99 88.62, -112.66 92.74 M-89.09 84.42 C-98.01 87.57, -106.93 90.72, -112.66 92.74" stroke="currentcolor" stroke-width="2" fill="none"></path></g><g transform="translate(562.2270130054148 593.3162131560454) rotate(0 -56.33103276826654 46.92090079085932)"><path d="M-89.26 101.52 C-95.16 99.31, -101.07 97.09, -112.66 92.74 M-89.26 101.52 C-98.11 98.2, -106.97 94.87, -112.66 92.74" stroke="currentcolor" stroke-width="2" fill="none"></path></g></g><mask></mask><g stroke-linecap="round"><g transform="translate(139.51628043129108 709.4990964132429) rotate(0 112.79713358040124 95.09230879106372)"><path d="M0 0 C0.24 60.23, 0.48 120.47, 0.76 190.18 M0 0 C0.23 57.08, 0.46 114.17, 0.76 190.18 M0.76 190.18 C79.46 189.76, 158.17 189.35, 225.59 188.99 M0.76 190.18 C51.43 189.91, 102.1 189.64, 225.59 188.99" stroke="currentcolor" stroke-width="2" fill="none"></path></g><g transform="translate(139.51628043129108 709.4990964132429) rotate(0 112.79713358040124 95.09230879106372)"><path d="M202.15 197.66 C209.57 194.91, 217 192.17, 225.59 188.99 M202.15 197.66 C209.19 195.06, 216.22 192.45, 225.59 188.99" stroke="currentcolor" stroke-width="2" fill="none"></path></g><g transform="translate(139.51628043129108 709.4990964132429) rotate(0 112.79713358040124 95.09230879106372)"><path d="M202.06 180.56 C209.51 183.23, 216.97 185.9, 225.59 188.99 M202.06 180.56 C209.12 183.09, 216.19 185.62, 225.59 188.99" stroke="currentcolor" stroke-width="2" fill="none"></path></g></g><mask></mask><g stroke-linecap="round"><g transform="translate(431.82535205049476 813.190721672649) rotate(0 -0.3577184189171021 31.97674537014882)"><path d="M0 0 C-0.27 23.95, -0.54 47.91, -0.72 63.95 M0 0 C-0.21 18.97, -0.42 37.93, -0.72 63.95" stroke="currentcolor" stroke-width="2" fill="none"></path></g><g transform="translate(431.82535205049476 813.190721672649) rotate(0 -0.3577184189171021 31.97674537014882)"><path d="M-9 40.37 C-5.9 49.2, -2.79 58.04, -0.72 63.95 M-9 40.37 C-6.54 47.36, -4.09 54.36, -0.72 63.95" stroke="currentcolor" stroke-width="2" fill="none"></path></g><g transform="translate(431.82535205049476 813.190721672649) rotate(0 -0.3577184189171021 31.97674537014882)"><path d="M8.1 40.56 C4.8 49.32, 1.5 58.08, -0.72 63.95 M8.1 40.56 C5.48 47.5, 2.87 54.44, -0.72 63.95" stroke="currentcolor" stroke-width="2" fill="none"></path></g></g><mask></mask><g stroke-linecap="round"><g transform="translate(738.8865473460341 811.7266984129467) rotate(0 -101.76679531613865 44.15875680182103)"><path d="M0 0 C0.23 31.28, 0.46 62.56, 0.64 88.32 M0 0 C0.13 18.11, 0.26 36.23, 0.64 88.32 M0.64 88.32 C-79.46 87.89, -159.56 87.46, -204.18 87.22 M0.64 88.32 C-61.27 87.99, -123.18 87.65, -204.18 87.22" stroke="currentcolor" stroke-width="2" fill="none"></path></g><g transform="translate(738.8865473460341 811.7266984129467) rotate(0 -101.76679531613865 44.15875680182103)"><path d="M-180.64 78.8 C-188.98 81.78, -197.31 84.76, -204.18 87.22 M-180.64 78.8 C-185.47 80.52, -190.3 82.25, -204.18 87.22" stroke="currentcolor" stroke-width="2" fill="none"></path></g><g transform="translate(738.8865473460341 811.7266984129467) rotate(0 -101.76679531613865 44.15875680182103)"><path d="M-180.73 95.9 C-189.04 92.82, -197.34 89.75, -204.18 87.22 M-180.73 95.9 C-185.54 94.12, -190.35 92.34, -204.18 87.22" stroke="currentcolor" stroke-width="2" fill="none"></path></g></g><mask></mask><g stroke-linecap="round"><g transform="translate(704.6313205945678 568.9087592612109) rotate(0 19.625206305387906 33.112230862075876)"><path d="M0 0 C15.7 0.34, 31.39 0.68, 39.25 0.85 M0 0 C13.81 0.3, 27.62 0.59, 39.25 0.85 M39.25 0.85 C38.92 16.54, 38.59 32.23, 37.88 66.22 M39.25 0.85 C38.97 14.11, 38.69 27.37, 37.88 66.22" stroke="currentcolor" stroke-width="2" fill="none"></path></g><g transform="translate(704.6313205945678 568.9087592612109) rotate(0 19.625206305387906 33.112230862075876)"><path d="M29.82 42.56 C33.04 52.02, 36.27 61.49, 37.88 66.22 M29.82 42.56 C32.66 50.88, 35.49 59.21, 37.88 66.22" stroke="currentcolor" stroke-width="2" fill="none"></path></g><g transform="translate(704.6313205945678 568.9087592612109) rotate(0 19.625206305387906 33.112230862075876)"><path d="M46.92 42.92 C43.3 52.24, 39.69 61.56, 37.88 66.22 M46.92 42.92 C43.74 51.12, 40.56 59.32, 37.88 66.22" stroke="currentcolor" stroke-width="2" fill="none"></path></g></g><mask></mask><g stroke-linecap="round"><g transform="translate(604.7261727135394 452.686904238485) rotate(0 0.737194454011501 44.174691264216534)"><path d="M0 0 C0.53 32.05, 1.07 64.11, 1.47 88.35 M0 0 C0.57 33.96, 1.13 67.93, 1.47 88.35" stroke="currentcolor" stroke-width="2" fill="none"></path></g><g transform="translate(604.7261727135394 452.686904238485) rotate(0 0.737194454011501 44.174691264216534)"><path d="M-7.47 65 C-4.22 73.47, -0.98 81.94, 1.47 88.35 M-7.47 65 C-4.03 73.98, -0.59 82.95, 1.47 88.35" stroke="currentcolor" stroke-width="2" fill="none"></path></g><g transform="translate(604.7261727135394 452.686904238485) rotate(0 0.737194454011501 44.174691264216534)"><path d="M9.63 64.72 C6.67 73.29, 3.71 81.86, 1.47 88.35 M9.63 64.72 C6.5 73.8, 3.36 82.89, 1.47 88.35" stroke="currentcolor" stroke-width="2" fill="none"></path></g></g><mask></mask><g stroke-linecap="round"><g transform="translate(354.3985313654034 453.38863173881833) rotate(0 -0.7320256746722862 16.73240246077097)"><path d="M0 0 C-0.33 7.45, -0.65 14.9, -1.46 33.46 M0 0 C-0.29 6.74, -0.59 13.49, -1.46 33.46" stroke="currentcolor" stroke-width="2" fill="none"></path></g><g transform="translate(354.3985313654034 453.38863173881833) rotate(0 -0.7320256746722862 16.73240246077097)"><path d="M-6.5 17.49 C-5.38 21.05, -4.26 24.6, -1.46 33.46 M-6.5 17.49 C-5.48 20.71, -4.47 23.93, -1.46 33.46" stroke="currentcolor" stroke-width="2" fill="none"></path></g><g transform="translate(354.3985313654034 453.38863173881833) rotate(0 -0.7320256746722862 16.73240246077097)"><path d="M4.95 17.99 C3.52 21.44, 2.09 24.88, -1.46 33.46 M4.95 17.99 C3.65 21.11, 2.36 24.23, -1.46 33.46" stroke="currentcolor" stroke-width="2" fill="none"></path></g></g><mask></mask><g stroke-linecap="round"><g transform="translate(466.27657629794885 92.41314489309332) rotate(0 0.73636996572111 15.46341113720706)"><path d="M0 0 C0.47 9.95, 0.95 19.89, 1.47 30.93 M0 0 C0.55 11.61, 1.11 23.23, 1.47 30.93" stroke="currentcolor" stroke-width="2" fill="none"></path></g><g transform="translate(466.27657629794885 92.41314489309332) rotate(0 0.73636996572111 15.46341113720706)"><path d="M-4.51 16.65 C-2.58 21.24, -0.66 25.83, 1.47 30.93 M-4.51 16.65 C-2.26 22.01, -0.02 27.37, 1.47 30.93" stroke="currentcolor" stroke-width="2" fill="none"></path></g><g transform="translate(466.27657629794885 92.41314489309332) rotate(0 0.73636996572111 15.46341113720706)"><path d="M6.07 16.14 C4.59 20.9, 3.11 25.65, 1.47 30.93 M6.07 16.14 C4.34 21.7, 2.62 27.25, 1.47 30.93" stroke="currentcolor" stroke-width="2" fill="none"></path></g></g><mask></mask><g stroke-linecap="round"><g transform="translate(353.2081545912374 635.201221208469) rotate(0 0.7320116298511721 14.274436215501453)"><path d="M0 0 C0.55 10.76, 1.1 21.53, 1.46 28.55 M0 0 C0.46 8.95, 0.92 17.91, 1.46 28.55" stroke="currentcolor" stroke-width="2" fill="none"></path></g><g transform="translate(353.2081545912374 635.201221208469) rotate(0 0.7320116298511721 14.274436215501453)"><path d="M-4.11 15.39 C-2.01 20.35, 0.09 25.31, 1.46 28.55 M-4.11 15.39 C-2.36 19.51, -0.61 23.64, 1.46 28.55" stroke="currentcolor" stroke-width="2" fill="none"></path></g><g transform="translate(353.2081545912374 635.201221208469) rotate(0 0.7320116298511721 14.274436215501453)"><path d="M5.66 14.88 C4.08 20.04, 2.5 25.19, 1.46 28.55 M5.66 14.88 C4.34 19.17, 3.03 23.46, 1.46 28.55" stroke="currentcolor" stroke-width="2" fill="none"></path></g></g><mask></mask><g stroke-opacity="0.3" fill-opacity="0.3" stroke-linecap="round" transform="translate(10 10) rotate(0 451.35362283433074 487.3470884785733)"><path d="M0 0 C307.42 0, 614.84 0, 902.71 0 M0 0 C338.96 0, 677.92 0, 902.71 0 M902.71 0 C902.71 365.1, 902.71 730.19, 902.71 974.69 M902.71 0 C902.71 331.19, 902.71 662.38, 902.71 974.69 M902.71 974.69 C572.28 974.69, 241.86 974.69, 0 974.69 M902.71 974.69 C695.3 974.69, 487.88 974.69, 0 974.69 M0 974.69 C0 630.95, 0 287.2, 0 0 M0 974.69 C0 689.77, 0 404.85, 0 0" stroke="currentcolor" stroke-width="1" fill="none"></path></g><g stroke-linecap="round"><g transform="translate(244.29260379813115 562.7027662271411) rotate(0 -16.315510827658272 0)"><path d="M0 0 C-12.45 0, -24.9 0, -32.63 0 M0 0 C-9.74 0, -19.48 0, -32.63 0" stroke="currentcolor" stroke-width="2" fill="none"></path></g><g transform="translate(244.29260379813115 562.7027662271411) rotate(0 -16.315510827658272 0)"><path d="M-17.3 -5.58 C-23.15 -3.45, -29 -1.32, -32.63 0 M-17.3 -5.58 C-21.88 -3.91, -26.45 -2.25, -32.63 0" stroke="currentcolor" stroke-width="2" fill="none"></path></g><g transform="translate(244.29260379813115 562.7027662271411) rotate(0 -16.315510827658272 0)"><path d="M-17.3 5.58 C-23.15 3.45, -29 1.32, -32.63 0 M-17.3 5.58 C-21.88 3.91, -26.45 2.25, -32.63 0" stroke="currentcolor" stroke-width="2" fill="none"></path></g></g><mask></mask></svg>